<svg xmlns="http://www.w3.org/2000/svg" version="1.0" viewBox="0 0 924 893"><path d="M532 301.7c-73.8 3.8-122.9 10.8-168.1 23.7-17.7 5.1-27.9 9-39.1 14.8-9.5 4.9-14.2 8.2-25.1 17.7l-8.5 7.5 6.6 13.3 6.7 13.3 3.8-4.5c8.3-9.7 34.2-23.8 58.7-31.9 116.3-38.8 325.9-39.2 443.2-1 31.3 10.2 58.9 25.9 64.7 36.8.8 1.4 1.7 2.6 2 2.6.4 0 2.8-3.6 5.5-8.1 6-10 5.8-12.6-1.2-19.1-17.7-16.4-39.7-28.3-69.7-37.7-45.9-14.3-105.9-23.6-176.4-27.1-17.9-.9-88.1-1.1-103.1-.3"/><path d="M553.5 334.7C496 337 444.1 343.5 401.4 354c-35.8 8.7-60.9 18.9-80.1 32.6-7.2 5.1-12 12.2-10.4 15.1 1.9 3.6 8.8 9.2 18 14.8 24.3 14.6 42.2 21.5 77.8 29.9l10.2 2.4 3-6.2c3.4-7 4.8-8.8 7.6-10.3 3-1.6 34.3-9 47.9-11.3 6.6-1.1 17.9-2.3 25-2.6l13.1-.6 3.9 3.3c4.9 4.2 6.8 8.6 6 14.1-.8 5.2-2.7 8.9-9.3 18.8l-5.1 7.5 5.2.6c2.9.4 13.4 1 23.3 1.4l18 .8-2.1-2.4c-2.9-3.2-5.4-8.3-5.4-10.9 0-7.6 10-15 24.7-18.4 9.2-2 27.6-2.1 36.2-.1 8.6 2.1 17.6 7 20.1 11 4 6.5 1.5 14.7-5.6 18.3-2 1-3.3 2.2-2.7 2.5 1 .7 30.1-.7 51.3-2.3 29.4-2.3 71.2-8.2 95.4-13.4 40.5-8.8 60.9-16.2 85.7-31.1 13.2-8 17.9-11.9 17.9-14.9 0-3.9-5.7-11.4-12.7-16.6-42.3-31.4-153.9-52.7-271.8-51.8-14.3.1-29.1.3-33 .5"/><path d="M227.7 363.7c-1.1.3-6 3.1-11 6.2-15.3 9.5-125.5 76.5-128.4 78-2.5 1.3-3.5 1.2-10.3-1.2-4.2-1.5-8.1-2.7-8.8-2.7s-6.4 3.9-12.6 8.6l-11.2 8.7 1 3.9c1.4 5.3-.5 8.5-7.2 12.1-3.8 2.1-5.2 3.4-5.2 5 0 1.2-.3 3.8-.6 5.8l-.6 3.5 7.1 3.2 7.2 3.1 65.8-28.9c37.3-16.5 67.1-29 68.7-29s3.9.7 5.1 1.5c1.6 1.1 83.9 115.1 104.3 144.4 2.2 3.2 2.3 3.4.5 4.7-1 .8-6.9 3.5-13 6l-11.2 4.7-3.1 9.8c-1.6 5.5-2.7 9.9-2.3 9.9.3 0 3.6.7 7.3 1.4 8.6 1.9 16.4 5.6 24.3 11.7l6.4 4.9h82.3c70.6.1 83.1-.2 88.1-1.5 8.4-2.2 12.2-4 19.2-8.9 5.6-4.1 13.1-11.4 12.3-12.1-.2-.2-2.4.1-5.1.6-13.2 2.4-26-5.1-32.6-19.1-2.3-4.8-2.6-6.8-2.6-15.5.1-12.1 1.9-16.9 9.6-25 5.6-5.9 13-9.5 19.7-9.5l3.7-.1-5.5-3.4c-11.1-7.1-14.5-7.9-33.5-7.7l-16.9.2 3.5-3.7c1.9-2.1 4.7-6.1 6.1-8.8 1.4-2.8 14.8-23.9 29.8-46.8 15-23 27-42 26.8-42.2-.7-.7-20.2 1.3-29.8 3-4.7.9-15.1 3.2-23.2 5.1-12.6 3.1-14.8 3.9-15.4 5.7-.3 1.2-1.2 2.9-1.9 3.7-1.2 1.4-39.4 89.7-43 99.2-1.2 3.2-2.5 5-4.4 5.7-1.9.8-73.2 25.4-79.7 27.6-.6.2-3.4-2.7-6.1-6.3-37.2-49.9-105.2-142.2-106.1-143.8-1.3-2.5-2.4-1.9 30.8-16.6 12.4-5.6 23.8-11.2 25.4-12.7 4.4-4 7.6-11.6 7.6-18.1-.1-13.6-11.4-25.2-24.5-24.9-2.7.1-5.8.3-6.8.6M581.5 438c-11.7 1.4-20 4.6-24.4 9.4-1.9 2-2.2 2.9-1.3 3.8s2.7.4 7.4-2c8.4-4.2 14.3-5.5 26.3-5.5 13.9-.1 25 2.9 31.2 8.5 2.1 2 2.1 2 3.3-.2 4.5-8.3-21.1-16.8-42.5-14"/><path d="M577.4 451.4c-6.5 1.5-16.4 6-16.4 7.5 0 2 5.1 6.8 9.8 9.4 13.8 7.5 31.6 4.7 41.7-6.4l3.8-4.2-2.2-1.9c-5.8-4.7-25.3-7-36.7-4.4M385 472.6c-11.8 4.7-22.7 9.2-24.2 10-3.6 1.9-5.1 1.8-13.8-1.3l-7.5-2.6-11.6 6.1c-11.2 6-11.5 6.3-11.1 9.2.7 4.6-2 7.6-8.2 9.6-5 1.6-5.4 2-5.8 5.2-.4 3.4-.3 3.5 6 6.3 3.5 1.6 6.9 2.9 7.6 2.9.9 0 70.7-19.1 78.7-21.6 1.3-.3 14.9-29.4 14.9-31.8 0-1.5-5 .1-25 8M484 556.3c-4.3 1.4-10.9 7.8-13.5 13.2-3 6.1-3.2 17.5-.5 24.7 2.8 7.5 9.9 14.1 17 15.8 20.3 4.9 36.2-20.2 25.9-40.8-5.9-11.9-16.7-16.8-28.9-12.9"/></svg>
