<svg xmlns="http://www.w3.org/2000/svg" version="1.0" viewBox="0 0 924 893"><path d="M447.8 93.7c-15.6 22-42.7 63.2-49.7 75.9-10.7 19.3-41.6 89-55.1 124.2-17.6 46.2-40.9 125.7-52.5 179.4-9 41-17.4 94.1-23.9 149.3-4 34.2-11.9 115.8-11.4 118.8.3 2.2 15.5-16 40.8-48.8 19.8-25.7 21.7-27.8 65.9-75 28.3-30.1 48.8-50.5 63.6-63.3 27.7-23.9 57.7-45.4 71.4-51.2 17.5-7.5 33-7.8 48.6-.9 13.7 5.9 29.4 19.4 36.7 31.3 1.8 3 6.8 10.5 11 16.7 11.5 17.1 26.1 44 64.7 118.9 6.1 11.8 11.1 21 11.1 20.3 0-1.5-7.1-47.1-11.6-73.8-16.3-98-31-157.9-59.3-241.5-30.6-90.7-58-154.7-92.6-217-11.2-20.2-45.8-78-46.6-78-.3 0-5.4 6.6-11.1 14.7M544.2 166.9c.2.4 4.9 10 10.5 21.2 34.5 69.1 73.9 175.9 99.4 269.4 3.3 12.1 6.1 22.4 6.2 22.9.4 1.2 10.4-24.6 18.7-47.8 11.8-33.4 21.6-66.1 31.4-105.1 6.5-26 21.6-95.9 20.9-96.6-.9-.7-185.4-64.9-186.7-64.9-.4 0-.6.4-.4.9M363 169c-2.8 1.5-115.1 38.8-151 50-19.5 6.2-35.8 11.5-36.3 11.9-.8.8 19.5 102.9 25.3 126.6 7.3 30 17.3 60.9 31.2 95.5 6.5 16.4 21.8 49.4 22.4 48.7.2-.2 2.4-10.2 4.9-22.3 12.1-59.2 35.9-142 56-194.9 7.3-19.3 28.2-68.4 40.1-94.4 5.2-11.3 9.3-20.9 9.2-21.3-.2-.3-1-.3-1.8.2"/><path d="M513.9 527.2c-15.5 5.5-56.2 35.7-83.8 62.3C407.8 611 360 661.1 360 663c0 2.9 86.8 104 89.3 104 1.6 0 87.7-86.8 99-99.7 12.9-14.9 27.5-33.1 38.1-47.6l7.8-10.7-5.8-10.3c-10-17.7-24.1-40.5-29.9-48.1-7.1-9.5-18.6-20.3-24.1-22.8-7-3-12.9-3.2-20.5-.6"/></svg>
