<svg xmlns="http://www.w3.org/2000/svg" version="1.0" viewBox="0 0 924 893"><path d="M451.9 41.8c-12.2 12.7-24 28.7-51.4 69.7-23.5 35.2-29.3 45.2-41.9 72.2-11.5 24.4-35.4 80.4-43.1 100.7-20.1 53.1-43.9 135.9-55.9 194.6-13.8 66.9-20.5 117.7-33.2 251-3 32.2-5.9 62.1-6.4 66.5-1.4 12.2-3.1 34.1-3.3 42.2-.3 8.9-.2 8.8 10.1-6.6 19.9-29.6 35.9-51.4 57.2-77.6 8-9.9 22.4-28 32-40.3 22.1-28.5 27.2-34.3 61.5-70.7 50.2-53.3 73.7-75.1 105.1-97.7 34.1-24.5 45.4-26.1 63.3-9.2 17 16 33.5 43.3 74.4 123 23 44.8 35.6 71.1 50 103.9 5.7 13.2 11.4 25.6 12.6 27.5 1.1 1.9 2.1 4.2 2.1 5.1s2.9 8.3 6.4 16.5S700.1 834 703 842c5.7 15.6 6.4 17 8.8 17 1.3 0 1.4-1.8.9-13.7-.9-17.7-4-54.5-7.2-83.3-1.3-12.4-3.1-29.9-4-39-2-21.7-3.8-35.5-8-64C674 528.9 659.9 467.5 627 369c-36.9-110.6-68.3-181-116.5-261.5-30.9-51.5-45.3-74.7-47.4-75.9-.5-.3-5.5 4.3-11.2 10.2"/></svg>
